<svg width="200" height="150" viewBox="0 0 200 150" fill="none" xmlns="http://www.w3.org/2000/svg">
  <path d="M100 20C55.8172 20 20 55.8172 20 100C20 144.183 55.8172 180 100 180C144.183 180 180 144.183 180 100C180 55.8172 144.183 20 100 20Z" fill="#F0F6FF"/>
  <path d="M110 60H50C47.2386 60 45 62.2386 45 65V115C45 117.761 47.2386 120 50 120H110C112.761 120 115 117.761 115 115V65C115 62.2386 112.761 60 110 60Z" fill="white" stroke="#D0D5DD" stroke-width="2"/>
  <rect x="55" y="75" width="50" height="5" rx="2.5" fill="#E7EFFF"/>
  <rect x="55" y="85" width="40" height="5" rx="2.5" fill="#E7EFFF"/>
  <rect x="55" y="95" width="45" height="5" rx="2.5" fill="#E7EFFF"/>
  <path d="M150 45H90C87.2386 45 85 47.2386 85 50V100C85 102.761 87.2386 105 90 105H150C152.761 105 155 102.761 155 100V50C155 47.2386 152.761 45 150 45Z" fill="white" stroke="#D0D5DD" stroke-width="2"/>
  <rect x="95" y="60" width="50" height="5" rx="2.5" fill="#E7EFFF"/>
  <rect x="95" y="70" width="40" height="5" rx="2.5" fill="#E7EFFF"/>
  <rect x="95" y="80" width="45" height="5" rx="2.5" fill="#E7EFFF"/>
  <path d="M130 50C125.029 50 121 54.0294 121 59C121 63.9706 125.029 68 130 68C134.971 68 139 63.9706 139 59C139 54.0294 134.971 50 130 50Z" fill="#1890FF" fill-opacity="0.5"/>
  <path d="M70 90C65.0294 90 61 94.0294 61 99C61 103.971 65.0294 108 70 108C74.9706 108 79 103.971 79 99C79 94.0294 74.9706 90 70 90Z" fill="#1890FF" fill-opacity="0.5"/>
  <path d="M90 40C84.4772 40 80 44.4772 80 50C80 55.5228 84.4772 60 90 60C95.5228 60 100 55.5228 100 50C100 44.4772 95.5228 40 90 40Z" fill="#1890FF" fill-opacity="0.3"/>
  <path d="M130 85C124.477 85 120 89.4772 120 95C120 100.523 124.477 105 130 105C135.523 105 140 100.523 140 95C140 89.4772 135.523 85 130 85Z" fill="#1890FF" fill-opacity="0.3"/>
</svg> 